<?xml version="1.0" encoding="utf-8"?>
<!-- Generator: Adobe Illustrator 18.1.1, SVG Export Plug-In . SVG Version: 6.00 Build 0)  -->
<svg version="1.1" id="Objects" xmlns="http://www.w3.org/2000/svg" xmlns:xlink="http://www.w3.org/1999/xlink" x="0px" y="0px"
	 viewBox="0 0 59.5 59.5" enable-background="new 0 0 59.5 59.5" xml:space="preserve">
<rect x="0" y="0" fill="#DFDDDE" width="59.5" height="59.5"/>
<g>
	<g>
		<g>
			<circle fill="#DFDDDE" cx="29.7" cy="29.7" r="29.7"/>
			<circle fill="#DFDDDE" cx="29.7" cy="29.7" r="29.7"/>
		</g>
		<path fill="#546F7A" d="M21.9,38.5c-0.2,0.3-0.2,0.6-0.3,1c-0.3,1.4-1.6,2.2-2.7,2.9c-3.9,2.3-7.8,4.5-11.6,6.9
			c5.5,6.3,13.5,10.2,22.4,10.2c9.4,0,17.8-4.4,23.2-11.2c-3.3-1.7-6.6-3.4-9.9-5.1c-0.8-0.4-1.6-0.8-2.4-1.1
			c-0.6-0.2-1.3-0.5-1.8-0.9c-0.8-0.7-0.6-1.8-0.8-2.8c-0.1-0.3-0.1-0.5-0.3-0.7c-0.4-0.5-1.2-0.5-1.6-0.9c-0.3-0.3-0.3-0.7-0.3-1
			c0-0.2,0-0.5,0.1-0.7c0.1-0.2,0.4-0.4,0.7-0.5c0.2-0.2,0.5-0.4,0.7-0.5c0.5-0.4,1-0.7,1.2-1.3c0.4-0.9,0.6-1.9,0.7-2.8
			c0.1-1-0.1-2.2,0.3-3.1c0.4-0.9,1.3-1.3,1.4-2.3c0.2-0.9,0-2-0.4-2.9c-0.2-0.4-0.4-0.6-0.7-1c-0.2-0.4-0.1-0.8,0-1.2
			c0.2-1.2-0.1-2.4-0.4-3.6c-0.1-0.4-0.2-0.9-0.3-1.3c-0.3-0.9-1-1.6-1.7-2.1c-0.4-0.2-0.8-0.4-1.2-0.6c-0.4-0.3-0.9-0.5-1.3-0.7
			c-1-0.4-2.1-0.8-3.2-1.1c-2.1-0.5-4.4-0.6-6.4,0.3c-1,0.5-2,1.4-2.1,2.5c-1.5-0.4-3.2,0.3-4,1.6c-0.6,1.1-0.7,2.3-0.7,3.5
			c0.1,1.1,0.4,2.1,0.6,3.2c0,0.3,0.1,0.6-0.1,0.9c-0.1,0.2-0.4,0.3-0.5,0.5c-0.1,0.2-0.1,0.4-0.1,0.5c-0.1,1.4-0.1,2.8,0.6,4
			c0.1,0.2,0.2,0.3,0.4,0.4c0.1,0.1,0.3,0.2,0.4,0.2c0.6,0.4,1,1.1,1.3,1.7c0.2,0.6,0.2,1.3,0.3,2c0.1,0.5,0.3,1.1,0.5,1.6
			c0.2,0.4,0.4,0.7,0.8,1c0.3,0.3,0.5,0.7,1,0.8c0,0.1,0.1,0.2,0.1,0.3c0.1,0.2,0.1,0.5,0.1,0.8c0,0.5,0.1,1.2-0.3,1.6
			C23.2,38.1,22.3,37.9,21.9,38.5z"/>
	</g>
</g>
</svg>
