<?xml version="1.0" encoding="utf-8"?>
<!-- Generator: Adobe Illustrator 18.1.1, SVG Export Plug-In . SVG Version: 6.00 Build 0)  -->
<svg version="1.1" id="Layer_1" xmlns="http://www.w3.org/2000/svg" xmlns:xlink="http://www.w3.org/1999/xlink" x="0px" y="0px"
	 viewBox="0 0 104.7 104.7" enable-background="new 0 0 104.7 104.7" xml:space="preserve">
<circle fill="#FBB040" cx="52.3" cy="52.3" r="52.3"/>
<g>
	<defs>
		<circle id="SVGID_1_" cx="52.3" cy="52.3" r="52.3"/>
	</defs>
	<clipPath id="SVGID_2_">
		<use xlink:href="#SVGID_1_"  overflow="visible"/>
	</clipPath>
	<g clip-path="url(#SVGID_2_)">
		<rect x="44.1" y="68.4" fill="#FBBCA0" width="20" height="13.5"/>
		<path fill="#E6E7E8" d="M48.9,78.2c3,1.2,6.3,1.9,9.6,1.9c1.9,0,3.8-0.2,5.6-0.5V68.4h-20v7C45.5,76.7,47.3,77.5,48.9,78.2z"/>
		<g>
			<path fill="#FBBCA0" d="M75.8,43c0.1-0.5,0.9-1.3,1.3-1.6c0.8-0.6,1.7,0,1.9,0.8c0.2,0.7,0.2,1.5,0.3,2.2c0.1,1.8-0.1,3.6-1,5.2
				c-0.5,1.1-1.4,2-2.4,2.6c0,0-1.1,0.5-1.3-0.7C74.6,51.6,75.8,43,75.8,43z"/>
			<path fill="#DDA78F" d="M75.6,44.1c0-0.4,0.7-0.9,0.9-1.1c0.6-0.4,1.2,0,1.4,0.6c0.2,0.5,0.2,1.1,0.2,1.6
				c0.1,1.3-0.1,2.5-0.7,3.7c-0.4,0.8-1,1.4-1.7,1.9c0,0-0.8,0.4-0.9-0.5C74.8,50.2,75.6,44.1,75.6,44.1z"/>
		</g>
		<g>
			<path fill="#FBBCA0" d="M31.9,43c-0.1-0.5-0.9-1.3-1.3-1.6c-0.8-0.6-1.7,0-1.9,0.8c-0.2,0.7-0.2,1.5-0.3,2.2
				c-0.1,1.8,0.1,3.6,1,5.2c0.5,1.1,1.4,2,2.4,2.6c0,0,1.1,0.5,1.3-0.7C33.1,51.6,31.9,43,31.9,43z"/>
			<path fill="#DDA78F" d="M32.1,44.1c0-0.4-0.7-0.9-0.9-1.1c-0.6-0.4-1.2,0-1.4,0.6c-0.2,0.5-0.2,1.1-0.2,1.6
				c-0.1,1.3,0.1,2.5,0.7,3.7c0.4,0.8,1,1.4,1.7,1.9c0,0,0.8,0.4,0.9-0.5C32.9,50.2,32.1,44.1,32.1,44.1z"/>
		</g>
		<path fill="#FBBCA0" d="M76.5,44.6c0,5.7-1,11.4-3.6,16.3c-2.3,4.3-5.8,7.7-9.6,10.4c-3,2.2-6.3,4.8-10.2,4.5
			c-4-0.3-7.2-3.8-10.1-6.4c-4.1-3.8-7.4-8.4-9.4-13.9c-1.2-3.4-1.8-7.2-1.8-10.9c0-18.3,10-29.8,22.4-29.8S76.5,26.4,76.5,44.6z"/>
		<path fill="#FBBCA0" d="M89.1,88l-25-6.5h-10h-10l-25,6.5c0,0-11.6,4.3-12.9,17.9h47.9H102C100.7,92.3,89.1,88,89.1,88z"/>
		<path fill="#FFFFFF" d="M89.1,88l-25-6.5h-10h-10l-25,6.5c0,0-11.6,4.3-12.9,17.9h47.9H102C100.7,92.3,89.1,88,89.1,88z"/>
		<path fill="#3C2415" d="M37.8,23.6c0,0,7.5,11.1,26.4,12.4c0,0-1.6-0.7-3.4-5.6c0,0,6.2,5.3,13.9,8.7l1.8,3.6c0,0,0-1.9,1.7-1.5
			c0,0,1.4-14.5-4.6-21.7c0,0,2.9,0.1,4.7,1.7c0,0-2.7-5.7-12-8.9c0,0,2.3-1.9,6.4-0.6c0,0-5.5-2.6-14.7-2.1C58,9.7,40,9,37.8,23.6z
			"/>
		<path fill="#3C2415" d="M40.7,26.2l-8.9,16.5c0,0-0.8-1-1.2-1.3c0,0-0.5-22.6,12.1-26.9L40.7,26.2z"/>
		<path fill="#414042" d="M89.1,88l-18.5-4.8l-16.5,22.7L37.8,83.2L19.1,88c0,0-11.6,4.3-12.9,17.9h47.9H102
			C100.7,92.3,89.1,88,89.1,88z"/>
		<polygon fill="#BD1E2D" points="51.9,94.5 47.3,105.9 60.4,105.9 55.9,94.5 		"/>
		<g>
			<polygon fill="#BE1E2D" points="53.8,81.7 47.9,89.6 52,94.6 54,94.5 56,94.5 59.9,89.4 			"/>
			<path fill="#D1D3D4" d="M57.7,88.6c-0.7,1.5-2.1,3.2-4,2.8c-2-0.4-2.9-2.3-2.4-4.2c0.4-1.8,1.6-3.4,2.3-5.1l-5.6,7.5l4.1,5l4-0.1
				l3.9-5.1l-1.7-2.1C58.1,87.8,57.9,88.2,57.7,88.6z"/>
		</g>
		<polygon fill="#2E2E2F" points="54.1,105.9 37.8,83.2 24.7,86.6 41.4,98.3 37.1,100.2 44.8,105.9 		"/>
		<polygon fill="#2E2E2F" points="54.1,105.9 70.4,83.2 83.5,86.6 66.8,98.4 71.1,100.3 63.4,105.9 		"/>
		<polygon fill="#E2E3E4" points="34.3,82 44.1,77.4 54,81.6 64,77.4 74.5,82 59.7,91.9 54,83.8 47.9,91.9 		"/>
	</g>
</g>
</svg>
