<?xml version="1.0" encoding="utf-8"?>
<!-- Generator: Adobe Illustrator 18.1.1, SVG Export Plug-In . SVG Version: 6.00 Build 0)  -->
<svg version="1.1" id="Layer_1" xmlns="http://www.w3.org/2000/svg" xmlns:xlink="http://www.w3.org/1999/xlink" x="0px" y="0px"
	 viewBox="0 0 104.7 104.7" enable-background="new 0 0 104.7 104.7" xml:space="preserve">
<circle fill="#EC524F" cx="52.3" cy="52.3" r="52.3"/>
<g>
	<defs>
		<circle id="SVGID_1_" cx="52.3" cy="52.3" r="52.3"/>
	</defs>
	<clipPath id="SVGID_2_">
		<use xlink:href="#SVGID_1_"  overflow="visible"/>
	</clipPath>
	<g clip-path="url(#SVGID_2_)">
		<g>
			<path fill="#A36625" d="M27.8,48c-0.3,0.4-1.2,36.8,5.2,44.3h36.2c0,0,9.9-27.9,3.2-44.3H27.6"/>
			<g>
				<rect x="42.3" y="68" fill="#FBBCA0" width="20" height="13.5"/>
				<path fill="#E6E7E8" d="M47.2,77.8c3,1.2,6.3,1.9,9.6,2c1.9,0,3.8-0.2,5.6-0.5V68h-20v7C43.7,76.2,45.5,77.1,47.2,77.8z"/>
				<g>
					<path fill="#FBBCA0" d="M74,42.6c0.1-0.5,0.9-1.3,1.3-1.6c0.8-0.6,1.7,0,1.9,0.8c0.2,0.7,0.2,1.5,0.3,2.2
						c0.1,1.8-0.1,3.6-1,5.2c-0.5,1.1-1.4,2-2.4,2.6c0,0-1.1,0.5-1.3-0.7C72.9,51.2,74,42.6,74,42.6z"/>
					<path fill="#DDA78F" d="M73.9,43.7c0-0.4,0.7-0.9,0.9-1.1c0.6-0.4,1.2,0,1.4,0.6c0.2,0.5,0.2,1.1,0.2,1.6
						c0.1,1.3-0.1,2.5-0.7,3.7c-0.4,0.8-1,1.4-1.7,1.9c0,0-0.8,0.4-0.9-0.5C73,49.8,73.9,43.7,73.9,43.7z"/>
				</g>
				<g>
					<path fill="#FBBCA0" d="M30.1,42.6c-0.1-0.5-0.9-1.3-1.3-1.6c-0.8-0.6-1.7,0-1.9,0.8c-0.2,0.7-0.2,1.5-0.3,2.2
						c-0.1,1.8,0.1,3.6,1,5.2c0.5,1.1,1.4,2,2.4,2.6c0,0,1.1,0.5,1.3-0.7C31.3,51.2,30.1,42.6,30.1,42.6z"/>
					<path fill="#DDA78F" d="M30.3,43.7c0-0.4-0.7-0.9-0.9-1.1c-0.6-0.4-1.2,0-1.4,0.6c-0.2,0.5-0.2,1.1-0.2,1.6
						c-0.1,1.3,0.1,2.5,0.7,3.7c0.4,0.8,1,1.4,1.7,1.9c0,0,0.8,0.4,0.9-0.5C31.1,49.8,30.3,43.7,30.3,43.7z"/>
				</g>
				<path fill="#FBBCA0" d="M74.7,44.2c0,5.7-1,11.4-3.6,16.3c-2.3,4.3-5.8,7.7-9.6,10.4c-3,2.2-6.3,4.8-10.2,4.5
					c-4-0.3-7.2-3.8-10.1-6.4c-4.1-3.8-7.4-8.4-9.4-13.9c-1.2-3.4-1.8-7.2-1.8-10.9c0-18.3,10-29.8,22.4-29.8
					C64.7,14.4,74.7,25.9,74.7,44.2z"/>
				<path fill="#FBBCA0" d="M82.8,87.6l-21.8-6.5h-8.7h-8.7l-21.8,6.5c0,0-10.1,4.3-11.2,17.9h41.7H94
					C92.9,91.9,82.8,87.6,82.8,87.6z"/>
				<path fill="#00B9C5" d="M76.4,85.7L70.8,84l-18.5,18.4L33.8,84l-4.4,1.3c0,0,1.6,6.6,0.5,20.2h22.4h22.9
					C74.1,91.9,76.4,85.7,76.4,85.7z"/>
			</g>
		</g>
		<path fill="#FBB040" d="M31.3,33.4c0,0,5.3,2.7,19,3.4l3-9.8l0.7,9.8c0,0,4.2,0.3,11.3-0.9l1.3-5.4l1.6,5.2c0,0,3.9-0.3,5-2.7
			c0,0-2.3-18-18.9-19.5C54.4,13.4,35.5,13.7,31.3,33.4z"/>
		<path fill="#FBB040" d="M40.2,16.2c-0.5-0.3,2.1-3.6,2.3-3.7c3-3,7.5-4,11.6-3.8C65,9.4,73.4,16,77.3,26.3
			c1.3,3.5,2.2,7.6,2.6,11.4c0,0,2.1,24.7,0,49.1c0,0-0.9,8.4-0.1,17.5c0,0-9,2.1-8.6-15.1L72,64.4l1.3-21.7c0,0,0.6-10.1-3.4-12
			C69.8,30.8,40.2,16.2,40.2,16.2z"/>
		<path fill="#FBB040" d="M46.6,13.2c0,0-18.9,0.6-17.7,27.8l1.1,1.6c0,0,6-16.1,15.8-19.7L46.6,13.2z"/>
		<path fill="#FBB040" d="M36.8,83.1l-7.3,2.2c-4.1-12.4-1.8-36.1-1.8-36.1s1.7,3.1,3.2,2.8c0,0,1.3,4.6,2.6,6.9
			C33.4,65.5,33.7,75.5,36.8,83.1z"/>
	</g>
</g>
</svg>
