<?xml version="1.0" encoding="utf-8"?>
<!-- Generator: Adobe Illustrator 18.1.1, SVG Export Plug-In . SVG Version: 6.00 Build 0)  -->
<svg version="1.1" id="Layer_1" xmlns="http://www.w3.org/2000/svg" xmlns:xlink="http://www.w3.org/1999/xlink" x="0px" y="0px"
	 viewBox="0 0 104.7 104.7" enable-background="new 0 0 104.7 104.7" xml:space="preserve">
<circle fill="#6C8F26" cx="52.3" cy="52.3" r="52.3"/>
<g>
	<defs>
		<circle id="SVGID_1_" cx="52.3" cy="52.3" r="52.3"/>
	</defs>
	<clipPath id="SVGID_2_">
		<use xlink:href="#SVGID_1_"  overflow="visible"/>
	</clipPath>
	<g clip-path="url(#SVGID_2_)">
		<rect x="42.8" y="65.8" fill="#FBBCA0" width="20" height="13.5"/>
		<path fill="#E6E7E8" d="M47.6,75.5c3,1.2,6.3,1.9,9.6,1.9c1.9,0,3.8-0.2,5.6-0.5V65.8h-20v7C44.2,74,46,74.9,47.6,75.5z"/>
		<g>
			<path fill="#FBBCA0" d="M73.7,40.8c0.1-0.5,0.9-1.3,1.2-1.6c0.8-0.6,1.6,0,1.8,0.8c0.2,0.7,0.2,1.5,0.3,2.2
				c0.1,1.8-0.1,3.5-0.9,5.1c-0.5,1.1-1.3,1.9-2.3,2.6c0,0-1,0.5-1.2-0.7C72.6,49.3,73.7,40.8,73.7,40.8z"/>
			<path fill="#DDA78F" d="M73.5,41.8c0-0.4,0.6-0.9,0.9-1.1c0.6-0.4,1.1,0,1.3,0.6c0.1,0.5,0.2,1.1,0.2,1.6
				c0.1,1.3-0.1,2.5-0.7,3.7c-0.4,0.8-1,1.4-1.6,1.9c0,0-0.7,0.4-0.9-0.5C72.7,47.9,73.5,41.8,73.5,41.8z"/>
		</g>
		<g>
			<path fill="#FBBCA0" d="M31.3,40.8c-0.1-0.5-0.9-1.3-1.2-1.6c-0.8-0.6-1.6,0-1.8,0.8c-0.2,0.7-0.2,1.5-0.3,2.2
				c-0.1,1.8,0.1,3.5,0.9,5.1c0.5,1.1,1.3,1.9,2.3,2.6c0,0,1,0.5,1.2-0.7C32.5,49.3,31.3,40.8,31.3,40.8z"/>
			<path fill="#DDA78F" d="M31.5,41.8c0-0.4-0.6-0.9-0.9-1.1c-0.6-0.4-1.1,0-1.3,0.6c-0.1,0.5-0.2,1.1-0.2,1.6
				c-0.1,1.3,0.1,2.5,0.7,3.7c0.4,0.8,1,1.4,1.6,1.9c0,0,0.7,0.4,0.9-0.5C32.3,47.9,31.5,41.8,31.5,41.8z"/>
		</g>
		<path fill="#FBBCA0" d="M74.3,42.4c0,5.6-0.9,11.2-3.5,16.1c-2.3,4.2-5.6,7.6-9.3,10.3c-2.9,2.2-6.1,4.8-9.8,4.4
			c-3.9-0.3-6.9-3.7-9.7-6.4c-4-3.7-7.1-8.3-9.1-13.8c-1.2-3.3-1.7-7.1-1.7-10.7c0-18.1,9.7-29.4,21.6-29.4
			C64.7,12.9,74.3,24.3,74.3,42.4z"/>
		<path fill="#FBBCA0" d="M87.8,85.4l-25-6.5h-10h-10l-25,6.5c0,0-11.6,4.3-12.9,17.9h47.9h47.9C99.3,89.7,87.8,85.4,87.8,85.4z"/>
		<path fill="#FFFFFF" d="M87.8,85.4l-25-6.5h-10h-10l-25,6.5c0,0-11.6,4.3-12.9,17.9h47.9h47.9C99.3,89.7,87.8,85.4,87.8,85.4z"/>
		<path fill="#174748" d="M87.8,85.4l-18.5-4.8l-16.5,22.7L36.4,80.5l-18.7,4.9c0,0-11.6,4.3-12.9,17.9h47.9h47.9
			C99.3,89.7,87.8,85.4,87.8,85.4z"/>
		<polygon fill="#EC524F" points="50.6,91.9 46,103.3 59.1,103.3 54.6,91.9 		"/>
		<g>
			<polygon fill="#EC524F" points="52.5,79.1 46.6,86.9 50.7,91.9 52.7,91.9 54.7,91.8 58.6,86.7 			"/>
			<path fill="#D1D3D4" d="M56.4,85.9c-0.8,1.5-2.1,3.2-4,2.8c-2-0.4-2.9-2.3-2.4-4.2c0.4-1.8,1.6-3.4,2.3-5.1l-5.6,7.5l4.1,5l4-0.1
				l3.9-5.1l-1.7-2.1C56.8,85.1,56.6,85.5,56.4,85.9z"/>
		</g>
		<polygon fill="#023435" points="52.8,103.3 36.4,80.5 23.4,83.9 40.1,95.7 35.8,97.6 43.5,103.3 		"/>
		<polygon fill="#023435" points="52.8,103.3 69.1,80.5 82.2,84 65.5,95.7 69.8,97.6 62,103.3 		"/>
		<polygon fill="#E2E3E4" points="32.9,79.3 42.7,74.7 52.7,78.9 62.7,74.7 73.2,79.3 58.4,89.2 52.7,81.1 46.6,89.2 		"/>
		<path fill="#160100" d="M65.4,65.5c0,0,5.4-5.1,6.6-9.6c0,0-6.4,5.8-8.6,5.2L65.4,65.5z"/>
		<path fill="#160100" d="M41.7,67c0,0-6.3-5.4-8-12.1c0,0,7.2,8.3,9.4,7.7L41.7,67z"/>
		<path fill="#1E0500" d="M56.6,58.2c3.5,0,5.5,1.3,5.5,1.3c3.1,1.5,3.9,5.5,3.9,5.5s-2.1,2.4-4.8,4c-5.9,4.9-8.6,4.3-8.6,4.3
			c-3.4,0-5.7-2.1-5.7-2.1l-5.5-4.3c-0.7-4.9,3.6-7.4,3.6-7.4c2.6-1.3,3-1.1,3-1.1s3.9-0.5,4.8,1.1c0,0,1-1.3,3.6-1.3"/>
		<g>
			<path fill="#FBBCA0" d="M53.3,62.2c0,0-2.4-1.2-6,0.1c0,0,5.4,5.7,11.4,0.1C58.8,62.4,55.5,60.9,53.3,62.2z"/>
		</g>
	</g>
</g>
</svg>
