<?xml version="1.0" encoding="utf-8"?>
<!-- Generator: Adobe Illustrator 18.1.1, SVG Export Plug-In . SVG Version: 6.00 Build 0)  -->
<svg version="1.1" id="Layer_1" xmlns="http://www.w3.org/2000/svg" xmlns:xlink="http://www.w3.org/1999/xlink" x="0px" y="0px"
	 viewBox="0 0 104.7 104.7" enable-background="new 0 0 104.7 104.7" xml:space="preserve">
<circle fill="#678B42" cx="52.3" cy="52.3" r="52.3"/>
<g>
	<defs>
		<circle id="SVGID_1_" cx="52.3" cy="52.3" r="52.3"/>
	</defs>
	<clipPath id="SVGID_2_">
		<use xlink:href="#SVGID_1_"  overflow="visible"/>
	</clipPath>
	<g clip-path="url(#SVGID_2_)">
		<path fill="#460209" d="M28.4,49.1c-0.3,0.4-1.2,36.8,5.2,44.3h36.2c0,0,9.9-27.9,3.2-44.3H28.2"/>
		<g>
			<rect x="42.9" y="69.1" fill="#FBBCA0" width="20" height="13.5"/>
			<path fill="#E6E7E8" d="M47.8,78.9c3,1.2,6.3,1.9,9.6,2c1.9,0,3.8-0.2,5.6-0.5V69.1h-20v7C44.3,77.3,46.1,78.2,47.8,78.9z"/>
			<g>
				<path fill="#FBBCA0" d="M74.6,43.7c0.1-0.5,0.9-1.3,1.3-1.6c0.8-0.6,1.7,0,1.9,0.8c0.2,0.7,0.2,1.5,0.3,2.2
					c0.1,1.8-0.1,3.6-1,5.2c-0.5,1.1-1.4,2-2.4,2.6c0,0-1.1,0.5-1.3-0.7C73.4,52.3,74.6,43.7,74.6,43.7z"/>
				<path fill="#DDA78F" d="M74.4,44.8c0-0.4,0.7-0.9,0.9-1.1c0.6-0.4,1.2,0,1.4,0.6c0.2,0.5,0.2,1.1,0.2,1.6
					c0.1,1.3-0.1,2.5-0.7,3.7c-0.4,0.8-1,1.4-1.7,1.9c0,0-0.8,0.4-0.9-0.5C73.6,50.9,74.4,44.8,74.4,44.8z"/>
			</g>
			<g>
				<path fill="#FBBCA0" d="M30.7,43.7c-0.1-0.5-0.9-1.3-1.3-1.6c-0.8-0.6-1.7,0-1.9,0.8c-0.2,0.7-0.2,1.5-0.3,2.2
					c-0.1,1.8,0.1,3.6,1,5.2c0.5,1.1,1.4,2,2.4,2.6c0,0,1.1,0.5,1.3-0.7C31.9,52.3,30.7,43.7,30.7,43.7z"/>
				<path fill="#DDA78F" d="M30.9,44.8c0-0.4-0.7-0.9-0.9-1.1c-0.6-0.4-1.2,0-1.4,0.6c-0.2,0.5-0.2,1.1-0.2,1.6
					c-0.1,1.3,0.1,2.5,0.7,3.7c0.4,0.8,1,1.4,1.7,1.9c0,0,0.8,0.4,0.9-0.5C31.7,50.9,30.9,44.8,30.9,44.8z"/>
			</g>
			<path fill="#FBBCA0" d="M75.3,45.3c0,5.7-1,11.4-3.6,16.3c-2.3,4.3-5.8,7.7-9.6,10.4c-3,2.2-6.3,4.8-10.2,4.5
				c-4-0.3-7.2-3.8-10.1-6.4c-4.1-3.8-7.4-8.4-9.4-13.9c-1.2-3.4-1.8-7.2-1.8-10.9c0-18.3,10-29.8,22.4-29.8
				C65.3,15.5,75.3,27,75.3,45.3z"/>
			<path fill="#FBBCA0" d="M83.4,88.7l-21.8-6.5h-8.7h-8.7l-21.8,6.5c0,0-10.1,4.3-11.2,17.9h41.7h41.7C93.5,93,83.4,88.7,83.4,88.7
				z"/>
			<path fill="#056F8C" d="M83.4,88.7l-12-3.6l-18.5,18.4L34.4,85.1l-12,3.6c0,0-10.1,4.3-11.2,17.9h41.7h41.7
				C93.5,93,83.4,88.7,83.4,88.7z"/>
		</g>
		<path fill="#6B1D24" d="M37.7,22.8c0,0,10.8,17.1,37.5,20c0,0,5.1-19.4-13.7-28.9C61.5,13.9,47.1,7.9,37.7,22.8z"/>
		<path fill="#3C2415" d="M40.5,26.2c0,0-7,4.5-10,17c0,0-3.2-23.6,13.5-26.6L40.5,26.2z"/>
		<path fill="#6B1D24" d="M67.8,40.8c0,0,7.2,45.6-4.2,58.5c0,0,14.5-2.1,15.2-22.1c0,0,2.6-40.7-7.2-54.7L67.8,40.8z"/>
		<path fill="#6B1D24" d="M37.2,99.3c0,0-16.7-2-12.1-53.2c0,0,1.1-28.5,17.8-29.1l-1,10.8c0,0-9.6,2.9-8.3,25.4
			C33.6,53.1,32.6,89.4,37.2,99.3z"/>
	</g>
</g>
</svg>
