<?xml version="1.0" encoding="utf-8"?>
<!-- Generator: Adobe Illustrator 18.1.1, SVG Export Plug-In . SVG Version: 6.00 Build 0)  -->
<svg version="1.1" id="Layer_1" xmlns="http://www.w3.org/2000/svg" xmlns:xlink="http://www.w3.org/1999/xlink" x="0px" y="0px"
	 viewBox="0 0 98.7 32.5" enable-background="new 0 0 98.7 32.5" xml:space="preserve">
<g>
	<path fill="#096AB5" d="M47,0c0.9,0.5,2,0.2,3,0.3c0.9,0.1,1.8,0,2.8,0.1c-1.4,0.6-2.9,1.1-4,2c-2.1,1.7-2.2,3-0.5,4.9
		c0.9,1,1.7,2,2.3,3.1c0.3,0.4,0.4,0.6-0.6,0.8C48.2,11.3,47.6,11,47,10c-3.2-4.9-10.6-8.6-20.7-8.5C8.4,1.7-1,12.3,4.3,21.9
		c2.5,4.4,6.9,7.8,14.3,9.2c7.5,1.4,14.3,0.3,20.3-2.8c1.5-0.8,2.8-1,4.8-0.8c-2.5,1.5-5.2,2.7-8.3,3.5c-2.4,0.7-5,1.1-7.7,1.3
		c-0.3,0-0.8-0.1-1,0.2c-0.4,0-0.9,0-1.3,0c-0.5-0.3-1.1-0.3-1.6,0c-0.4,0-0.9,0-1.3,0c-0.2-0.3-0.7-0.2-1.1-0.2
		c-10.8-1-18.9-5.9-21.1-12.5c-0.1-0.3,0.1-0.6-0.5-0.8c0-1.3,0-2.7,0-4c0.6-0.3,0.5-0.8,0.6-1.2c0.5-1.7,1.4-3.3,2.7-4.7
		c4.8-5.3,12.3-8,21.9-8.7c0.7,0,1.5,0.2,2-0.4c1,0,1.9,0,2.9,0c1.2,0.4,2.5,0,3.8,0.2c1.1,0,2.2,0,3.3,0c1,0,2.1,0,3.1,0
		c0.5-0.1,1.1,0.2,1.6-0.1C43.6,0,45.3,0,47,0z"/>
	<path fill="#096AB5" d="M33.8,0.2C32.5,0,31.2,0.4,30,0c1.3,0,2.6,0,3.8,0C33.9,0.1,33.8,0.1,33.8,0.2z"/>
	<path fill="#096AB5" d="M40.3,0.1c-1,0-2.1,0-3.1,0c0-0.1-0.1-0.1-0.1-0.2c1.1,0,2.1,0,3.2,0C40.3,0,40.3,0.1,40.3,0.1z"/>
	<path fill="#1165B5" d="M37.1,0c0,0.1,0,0.1,0.1,0.2c-1.1,0-2.2,0-3.3,0c0-0.1,0.1-0.1,0.1-0.2C34.9,0,36,0,37.1,0z"/>
	<path fill="#096AB5" d="M40.3,0.1c0,0,0.1-0.1,0-0.1c0.5,0,1.1,0,1.6,0C41.4,0.3,40.8,0.1,40.3,0.1z"/>
	<path fill="#26BBF7" d="M24,32.5c0.5-0.3,1.1-0.3,1.6,0C25,32.5,24.5,32.5,24,32.5z"/>
	<path fill="#A7DF24" d="M30.3,9.9c2.1,0.9,2.9,2.4,3.5,3.9c-3.5,1.6-4.6,3.8-3.8,6.4c-4.2,1.8-8.6,1.9-13.1,0.4
		c-0.3-0.1-0.7-0.2-1-0.3c-0.4-1-0.1-2-0.1-3c0.5,0,0.9,0.2,1.3,0.4c1.4,0.6,2.9,0.9,4.6,0.9c2.6-0.1,4.8-0.9,5.5-2.3
		c0.7-1.2,0-2.4-2.1-3.5c-0.2-0.1-0.3-0.2-0.5-0.3c-0.3-0.9-1.3-1.5-2.3-2.1C24.8,9.7,27.5,9.8,30.3,9.9z"/>
	<path fill="#0E63B3" d="M30,20.2c-0.8-2.6,0.3-4.8,3.8-6.4c3-1.1,6.3-1.1,9.6-1c1.1,0,1.1,0.2,0.9,0.8c-1,2.6-1.8,5.2-1.7,7.9
		c0,0.4-0.1,0.4-0.6,0.4c-0.6,0-1.3,0-1.9,0c-1.3,0.1-2.3-0.1-2.2-1.2c-1.1,1-2.4,1.6-4.3,1.4C31.7,22,30.6,21.2,30,20.2z M34.3,18
		c0,0.2,0,0.4,0,0.6c0.2,1,1.1,1.7,2.2,1.7c1.5-0.1,1.8-0.8,1.9-1.6c0.3-1.2,0.5-2.4,0.8-3.5c0.2-1-0.4-1.3-1.9-0.9
		c-0.7,0.2-1.3,0.5-1.7,0.9C34.7,15.9,34.4,16.9,34.3,18z"/>
	<path fill="#086AB4" d="M81.4,12.8c-1.3,2.2-1.4,4.4-1.9,6.5c-0.1,0.5-0.1,1.1,1,1.1c1.1,0.1,2-0.2,2.1-0.9c0.4-2,1.2-4.1,1.1-6.1
		c0-0.5,0.1-0.6,0.9-0.6c4-0.2,4-0.2,3.4,2.3c-0.5,2-1,4-1.3,6c-0.1,0.7-0.5,0.9-1.5,0.8c-0.5,0-1.1,0-1.6,0c-1.1,0.1-1.6-0.2-1.5-1
		c-1,0.7-2.1,1.1-3.6,1.1c-2.5,0-3.7-0.9-3.4-2.4c0.3-1.5,0.7-3.1,1.1-4.6c0.1-0.4,0.3-0.8,0.1-1.1c-0.6-1.1,0.4-1.2,1.8-1.1
		C79.1,12.8,80.2,12.8,81.4,12.8z M82.3,20.8c0,0-0.1,0-0.1-0.1c0,0-0.1,0-0.1,0.1C82.2,20.8,82.2,20.9,82.3,20.8
		C82.3,20.9,82.3,20.8,82.3,20.8z"/>
	<path fill="#0372D8" d="M15.7,17.3c0,1-0.3,2,0.1,3c0,1.3,0,2.5,0,3.8c0,0.2,0,0.3-0.1,0.5c-0.1,0.7-0.3,1.4-1.4,1.6
		c-1.2,0.2-1.8-0.5-2.4-1.1c-1.7-1.7-2.8-3.5-3.3-5.4c0.3-0.1,0.3-0.3,0.4-0.5c1-2.1,2-4.2,3.7-6.1c1.8-2.1,5.4-4,9.4-2.6
		c-1.7,0.5-3.6,0.9-4.1,2.3c0,0,0,0,0,0c-0.1,0.1-0.2,0.1-0.3,0.2c0,0,0,0,0,0c-0.1,0.1-0.2,0.1-0.3,0.2
		C16.2,14.5,15.1,15.8,15.7,17.3z"/>
	<path fill="#0E63B3" d="M63.9,14.2c0.7,0.2,0.9-0.3,1.3-0.5c2-1.1,4.3-1.3,6.8-0.9c1.2,0.2,2,0.7,2.4,1.5c0.2,0.4,0.3,0.9,0.3,1.4
		c0,2.1,0,2.1-3.2,2.1c-1.3,0-2.6,0-3.8,0c-0.7,0-0.9,0.2-0.9,0.6c-0.1,1.4,1.3,2.2,3.7,2c1-0.1,1.9-0.3,2.9-0.5
		c-0.7,1.5-2.2,2.3-4.8,2.3c-2.4,0-4.4-0.3-5.9-1.5c0,0,0-0.1,0-0.1c-0.7-2-0.5-4,1.3-5.8C64.1,14.4,64.3,14.3,63.9,14.2L63.9,14.2z
		 M68.9,16.3c2.4,0,2.4,0,2.4-1.1c0-0.7-0.3-1.3-1.6-1.3c-1.2,0-2.4,0.9-2.4,1.9C67.2,16.8,68.5,16,68.9,16.3z"/>
	<path fill="#0568B3" d="M22,10.5c-4-1.4-7.6,0.5-9.4,2.6c-1.7,1.9-2.6,4-3.7,6.1c-0.1,0.2-0.1,0.4-0.4,0.5c-1.3-3.9-1.2-7.5,4-10.4
		c5.1-2.8,12.4-2.1,16.2-0.5c0.6,0.3,1.2,0.6,1.5,1c-2.7-0.1-5.5-0.2-8,0.6C22.2,10.5,22.1,10.5,22,10.5z"/>
	<path fill="#1064B4" d="M54,14.2c0,0.2,0,0.4,0,0.7c-0.8-0.4-1.3-0.8-2.1-1c-0.9-0.2-1.8-0.2-2.4,0.3c-0.6,0.5-0.1,1,0.6,1.4
		c0.7,0.4,1.3,0.8,2,1.1c1.5,0.8,1.8,1.9,1.3,3c-0.6,1.1-1.9,1.8-3.7,2.1c-1.6,0.3-3.2,0.2-4.7,0c-0.8-0.1-1.4-0.3-1-0.9
		c0.2-0.4,0.2-0.9,0.3-1.5c0.7,0.4,1.2,0.9,2.1,1.2c1,0.3,1.9,0.4,2.6-0.2c0.7-0.6,0-1.1-0.6-1.4c-0.6-0.4-1.3-0.7-1.9-1.1
		c-2.8-1.8-1.5-4.5,2.5-5.1c1.6-0.2,3.3-0.2,4.9,0.1c0.4,0.1,0.8,0.2,0.6,0.5C53.9,13.6,54,13.9,54,14.2z"/>
	<path fill="#1165B5" d="M54,14.2c0-0.3-0.2-0.6,0.2-0.8c0,0.7,0.5,0.4,1,0.2c1.5-0.7,3-1.3,4.4-2.1c0.4-0.2,0.7-0.5,1.3-0.6
		c0.3,0.4,0.1,0.8,0,1.2c-0.2,0.6,0.1,0.8,1,0.8c2.1,0,2.1,0.1,2,1.4c0,0,0,0,0,0c-0.6,0-1.3,0-1.9-0.1c-1.2-0.1-1.7,0.1-1.8,0.9
		c-0.2,1.5-0.7,2.9-1,4.4c-0.2,0.9,0.4,1.2,1.8,1.1c0.5,0,1-0.1,1.5-0.2c0,0,0,0.1,0,0.1c-1.1,1.4-4.1,2.1-6.3,1.4
		c-1.2-0.4-1.6-1.1-1.4-1.9c0.3-1.5,0.7-3.1,1-4.6C56.1,14,56.1,14,54,14.2z"/>
	<path fill="#1165B5" d="M94.2,14c1-0.7,1.9-1.2,3.3-1.2c0.9,0,1.5,0.1,1,0.8c-0.4,0.6-0.6,1.2-0.8,1.8c-0.5,0.1-0.7-0.2-0.9-0.3
		c-1.4-0.5-2.8-0.3-3,0.7c-0.4,1.9-1.3,3.8-0.9,5.7c0.1,0.3,0,0.4-0.5,0.4c-0.1,0-0.2,0-0.3,0c-4,0.1-4,0.1-3.4-2.3c0.4-2,1-4,1.4-6
		c0.1-0.7,0.5-0.9,1.6-0.8c0.3,0,0.6,0,1,0C93.8,12.7,94.7,12.9,94.2,14z"/>
	<path fill="#26BBF7" d="M24.6,12.6c-2.3-0.5-4.5-0.6-6.6,0.2c0.5-1.4,2.4-1.7,4.1-2.3c0.1,0,0.1,0,0.2,0
		C23.2,11.1,24.2,11.7,24.6,12.6z"/>
	<path fill="#26BBF7" d="M17.6,13c0,0.1-0.1,0.2-0.3,0.2C17.4,13.1,17.5,13,17.6,13z"/>
	<path fill="#26BBF7" d="M17.9,12.8c0,0.1-0.2,0.2-0.3,0.2C17.7,12.9,17.8,12.8,17.9,12.8z"/>
</g>
</svg>
