<?xml version="1.0" encoding="utf-8"?>
<!-- Generator: Adobe Illustrator 18.1.1, SVG Export Plug-In . SVG Version: 6.00 Build 0)  -->
<svg version="1.1" id="Layer_1" xmlns="http://www.w3.org/2000/svg" xmlns:xlink="http://www.w3.org/1999/xlink" x="0px" y="0px"
	 viewBox="0 0 104.7 104.7" enable-background="new 0 0 104.7 104.7" xml:space="preserve">
<circle fill="#7A4B35" cx="52.3" cy="52.3" r="52.3"/>
<g>
	<defs>
		<circle id="SVGID_1_" cx="52.3" cy="52.3" r="52.3"/>
	</defs>
	<clipPath id="SVGID_2_">
		<use xlink:href="#SVGID_1_"  overflow="visible"/>
	</clipPath>
	<g clip-path="url(#SVGID_2_)">
		<rect x="42.1" y="66.8" fill="#FBBCA0" width="20" height="13.5"/>
		<path fill="#E6E7E8" d="M46.9,76.5c3,1.2,6.3,1.9,9.6,1.9c1.9,0,3.8-0.2,5.6-0.5V66.8h-20v7C43.5,75,45.3,75.9,46.9,76.5z"/>
		<g>
			<path fill="#FBBCA0" d="M74.2,41.8c0.1-0.5,0.9-1.3,1.3-1.6c0.8-0.6,1.7,0,1.9,0.8c0.2,0.7,0.2,1.5,0.3,2.2
				c0.1,1.8-0.1,3.5-1,5.1c-0.5,1.1-1.4,1.9-2.4,2.6c0,0-1.1,0.5-1.3-0.7C73,50.2,74.2,41.8,74.2,41.8z"/>
			<path fill="#DDA78F" d="M74,42.8c0-0.4,0.7-0.9,0.9-1.1c0.6-0.4,1.2,0,1.4,0.6c0.2,0.5,0.2,1.1,0.2,1.6c0.1,1.3-0.1,2.5-0.7,3.7
				c-0.4,0.8-1,1.4-1.7,1.9c0,0-0.8,0.4-0.9-0.5C73.2,48.9,74,42.8,74,42.8z"/>
		</g>
		<g>
			<path fill="#FBBCA0" d="M29.4,41.8c-0.1-0.5-0.9-1.3-1.3-1.6c-0.8-0.6-1.7,0-1.9,0.8c-0.2,0.7-0.2,1.5-0.3,2.2
				c-0.1,1.8,0.1,3.5,1,5.1c0.5,1.1,1.4,1.9,2.4,2.6c0,0,1.1,0.5,1.3-0.7C30.6,50.2,29.4,41.8,29.4,41.8z"/>
			<path fill="#DDA78F" d="M29.6,42.8c0-0.4-0.7-0.9-0.9-1.1c-0.6-0.4-1.2,0-1.4,0.6c-0.2,0.5-0.2,1.1-0.2,1.6
				c-0.1,1.3,0.1,2.5,0.7,3.7c0.4,0.8,1,1.4,1.7,1.9c0,0,0.8,0.4,0.9-0.5C30.5,48.9,29.6,42.8,29.6,42.8z"/>
		</g>
		<path fill="#FBBCA0" d="M74.9,43.4c0,5.6-1,11.2-3.7,16.1c-2.4,4.2-5.9,7.6-9.8,10.3c-3.1,2.2-6.4,4.8-10.4,4.4
			c-4.1-0.3-7.3-3.7-10.3-6.4c-4.2-3.7-7.5-8.3-9.6-13.8c-1.3-3.3-1.8-7.1-1.8-10.7c0-18.1,10.2-29.4,22.8-29.4
			C64.7,13.9,74.9,25.3,74.9,43.4z"/>
		<path fill="#FBBCA0" d="M87.1,86.4l-25-6.5h-10h-10l-25,6.5c0,0-11.6,4.3-12.9,17.9h47.9h47.9C98.6,90.7,87.1,86.4,87.1,86.4z"/>
		<path fill="#FFFFFF" d="M87.1,86.4l-25-6.5h-10h-10l-25,6.5c0,0-11.6,4.3-12.9,17.9h47.9h47.9C98.6,90.7,87.1,86.4,87.1,86.4z"/>
		<path fill="#002C41" d="M87.1,86.4l-18.5-4.8l-16.5,22.7L35.7,81.5l-18.7,4.9c0,0-11.6,4.3-12.9,17.9h47.9h47.9
			C98.6,90.7,87.1,86.4,87.1,86.4z"/>
		<polygon fill="#FBB040" points="49.9,92.9 45.3,104.2 58.4,104.2 53.9,92.9 		"/>
		<g>
			<polygon fill="#FBB040" points="51.8,80.1 45.9,87.9 50,92.9 52,92.9 54,92.8 57.9,87.7 			"/>
			<path fill="#D1D3D4" d="M55.7,86.9c-0.8,1.5-2.1,3.2-4,2.8c-2-0.4-2.9-2.3-2.4-4.2c0.4-1.8,1.6-3.4,2.3-5.1l-5.6,7.5l4.1,5l4-0.1
				l3.9-5.1l-1.7-2.1C56.1,86.1,55.9,86.5,55.7,86.9z"/>
		</g>
		<path fill="#3C2415" d="M29.4,41.1c0,0,3.3-20.3,13.8-18.3c0,0,9.4,5.9,17.3-0.1c0,0,9.5-0.3,14.8,18.5c0,0,1.3-20.1-13.1-27.2
			c0,0-13.3-6.1-24.7,3C37.4,16.9,26.6,25.5,29.4,41.1z"/>
		<polygon fill="#001E2F" points="52.1,104.2 35.7,81.5 22.7,84.9 39.4,96.7 35.1,98.6 42.8,104.2 		"/>
		<polygon fill="#001E2F" points="52.1,104.3 68.4,81.5 81.5,85 64.8,96.7 69.1,98.6 61.4,104.3 		"/>
		<polygon fill="#E2E3E4" points="32.2,80.3 42,75.7 52,79.9 62,75.7 72.5,80.3 57.7,90.2 52,82.1 45.9,90.2 		"/>
	</g>
</g>
</svg>
