<?xml version="1.0" encoding="utf-8"?>
<!-- Generator: Adobe Illustrator 18.1.1, SVG Export Plug-In . SVG Version: 6.00 Build 0)  -->
<svg version="1.1" id="Layer_1" xmlns="http://www.w3.org/2000/svg" xmlns:xlink="http://www.w3.org/1999/xlink" x="0px" y="0px"
	 viewBox="0 0 104.7 104.7" enable-background="new 0 0 104.7 104.7" xml:space="preserve">
<circle fill="#18ADD9" cx="52.3" cy="52.3" r="52.3"/>
<g>
	<defs>
		<circle id="SVGID_1_" cx="52.3" cy="52.3" r="52.3"/>
	</defs>
	<clipPath id="SVGID_2_">
		<use xlink:href="#SVGID_1_"  overflow="visible"/>
	</clipPath>
	<g clip-path="url(#SVGID_2_)">
		<g>
			<g>
				<path d="M36.3,49.4c-0.2,0.3-0.8,27.5,4.3,33.1l28.6-0.2c0,0,7.7-20.9,2.3-33.1l-35.4,0.2"/>
				<g>
					
						<rect x="43.9" y="66.5" transform="matrix(1 -6.262040e-003 6.262040e-003 1 -0.4579 0.3394)" fill="#FBBCA0" width="20" height="13.5"/>
					<path fill="#E6E7E8" d="M48.8,76.3c3,1.2,6.3,1.9,9.6,1.9c1.9,0,3.8-0.2,5.6-0.6l-0.1-11.2l-20,0.1l0,7
						C45.4,74.8,47.2,75.7,48.8,76.3z"/>
					<path fill="#FBBCA0" d="M76.1,42.6c0,5.7-0.9,11.4-3.5,16.3c-2.3,4.3-5.8,7.7-9.5,10.5c-3,2.2-6.3,4.8-10.1,4.6
						c-4-0.3-7.2-3.7-10.1-6.4c-4.2-3.7-7.4-8.4-9.5-13.9c-1.3-3.4-1.9-7.2-1.9-10.8C31.3,24.6,41.2,13,53.6,13
						C65.9,12.9,76,24.3,76.1,42.6z"/>
					<path fill="#FBBCA0" d="M84.5,86l-21.8-6.4L54,79.6l-8.7,0.1l-21.7,6.7c0,0-10.1,4.3-11.1,17.9l41.7-0.3l41.7-0.3
						C94.6,90.2,84.5,86,84.5,86z"/>
					<path fill="#003A54" d="M84.5,86l-12.1-3.5L54.1,101L35.5,82.7l-12,3.7c0,0-10.3,4.4-11.1,17.9l61-0.4l22.9-0.1
						C94.2,89.7,84.5,86,84.5,86z"/>
				</g>
			</g>
			<path d="M32.7,32.1c5.3,5.1,22.1,3.9,20,3.8l2-10.3L56,36c0,0,3.2,1.2,10.3,0l1.7-7.1l1.3,6.6c0,0,4.9-1.3,6-3.7
				c0,0-1-18.1-19.7-19.8C55.6,12,36.8,12.3,32.7,32.1z"/>
			<path d="M69.2,18c0,0,8.3,52.6-2.6,67c0,0,11.1-4.4,12.5-13.4C79.1,71.6,87.9,33.1,69.2,18z"/>
			<path d="M41.6,17.8c0,0-8.9,53.1,2.1,67.3c0,0-11.2-4.3-12.7-13.3C31,71.9,23,33.1,41.6,17.8z"/>
		</g>
		<polygon fill="#E2E3E4" points="35.1,82.8 54.3,102.4 75,83.2 68.9,80.8 54,83.8 42,79.7 		"/>
		<polygon fill="#CDCFD0" points="35.1,82.8 44.4,78.7 53.9,82.3 63.3,78.5 73.3,82.6 59.3,91.5 53.9,84.3 48.1,91.6 		"/>
	</g>
</g>
</svg>
