<?xml version="1.0" encoding="utf-8"?>
<!-- Generator: Adobe Illustrator 18.1.1, SVG Export Plug-In . SVG Version: 6.00 Build 0)  -->
<svg version="1.1" id="Layer_1" xmlns="http://www.w3.org/2000/svg" xmlns:xlink="http://www.w3.org/1999/xlink" x="0px" y="0px"
	 viewBox="0 0 104.7 104.7" enable-background="new 0 0 104.7 104.7" xml:space="preserve">
<g>
	<defs>
		<circle id="SVGID_1_" cx="52.3" cy="52.3" r="52.3"/>
	</defs>
	<use xlink:href="#SVGID_1_"  overflow="visible" fill="#003A54"/>
	<clipPath id="SVGID_2_">
		<use xlink:href="#SVGID_1_"  overflow="visible"/>
	</clipPath>
	<g clip-path="url(#SVGID_2_)">
		<rect x="42.3" y="67.1" fill="#FBBCA0" width="20" height="13.5"/>
		<path fill="#E6E7E8" d="M47.2,76.9c3,1.2,6.3,1.9,9.6,1.9c1.9,0,3.8-0.2,5.6-0.5V67.1h-20v7C43.7,75.4,45.5,76.2,47.2,76.9z"/>
		<g>
			<path fill="#FBBCA0" d="M74.5,42.1c0.1-0.5,0.9-1.3,1.3-1.6c0.8-0.6,1.7,0,1.9,0.8c0.2,0.7,0.2,1.5,0.3,2.2
				c0.1,1.8-0.1,3.5-1,5.1c-0.5,1.1-1.4,1.9-2.4,2.6c0,0-1.1,0.5-1.3-0.7C73.3,50.6,74.4,42.1,74.5,42.1z"/>
			<path fill="#DDA78F" d="M74.3,43.2c0-0.4,0.7-0.9,0.9-1.1c0.6-0.4,1.2,0,1.4,0.6c0.2,0.5,0.2,1.1,0.2,1.6
				c0.1,1.3-0.1,2.5-0.7,3.7c-0.4,0.8-1,1.4-1.7,1.9c0,0-0.8,0.4-0.9-0.5C73.4,49.3,74.3,43.2,74.3,43.2z"/>
		</g>
		<g>
			<path fill="#FBBCA0" d="M29.7,42.1c-0.1-0.5-0.9-1.3-1.3-1.6c-0.8-0.6-1.7,0-1.9,0.8c-0.2,0.7-0.2,1.5-0.3,2.2
				c-0.1,1.8,0.1,3.5,1,5.1c0.5,1.1,1.4,1.9,2.4,2.6c0,0,1.1,0.5,1.3-0.7C30.9,50.6,29.7,42.1,29.7,42.1z"/>
			<path fill="#DDA78F" d="M29.9,43.2c0-0.4-0.7-0.9-0.9-1.1c-0.6-0.4-1.2,0-1.4,0.6c-0.2,0.5-0.2,1.1-0.2,1.6
				c-0.1,1.3,0.1,2.5,0.7,3.7c0.4,0.8,1,1.4,1.7,1.9c0,0,0.8,0.4,0.9-0.5C30.7,49.3,29.9,43.2,29.9,43.2z"/>
		</g>
		<path fill="#FBBCA0" d="M75.1,43.7c0,5.6-1,11.2-3.7,16.1c-2.4,4.2-5.9,7.6-9.8,10.3c-3.1,2.2-6.4,4.8-10.4,4.4
			c-4.1-0.3-7.3-3.7-10.3-6.4c-4.2-3.7-7.5-8.3-9.6-13.8c-1.3-3.3-1.8-7.1-1.8-10.7c0-18.1,10.2-29.4,22.8-29.4
			C64.9,14.3,75.1,25.7,75.1,43.7z"/>
		<path fill="#FBBCA0" d="M87.3,86.7l-25-6.5h-10h-10l-25,6.5c0,0-11.6,4.3-12.9,17.9h47.9h47.9C98.9,91,87.3,86.7,87.3,86.7z"/>
		<path fill="#FFFFFF" d="M87.3,86.7l-25-6.5h-10h-10l-25,6.5c0,0-11.6,4.3-12.9,17.9h47.9h47.9C98.9,91,87.3,86.7,87.3,86.7z"/>
		<path fill="#002C41" d="M87.3,86.7l-18.5-4.8l-16.5,22.7L36,81.9l-18.7,4.9c0,0-11.6,4.3-12.9,17.9h47.9h47.9
			C98.9,91,87.3,86.7,87.3,86.7z"/>
		<polygon fill="#FBB040" points="50.1,93.2 45.5,104.6 58.6,104.6 54.1,93.2 		"/>
		<g>
			<polygon fill="#FBB040" points="52,80.4 46.2,88.3 50.2,93.3 52.2,93.2 54.2,93.2 58.1,88.1 			"/>
			<path fill="#D1D3D4" d="M55.9,87.3c-0.8,1.5-2.1,3.2-4,2.8c-2-0.4-2.9-2.3-2.4-4.2c0.4-1.8,1.6-3.4,2.3-5.1l-5.6,7.5l4.1,5l4-0.1
				l3.9-5.1L56.5,86C56.3,86.5,56.1,86.9,55.9,87.3z"/>
		</g>
		<path fill="#3C2415" d="M75.4,41.5c0,0-3.7,17.4-16.2,22.4c0,0-1.6,3.9-6.7,3.9c-5.2,0-6.7-3.9-6.7-3.9
			c-12.5-5-16.2-22.4-16.2-22.4C28.5,61,42.5,69.4,42.5,69.4c7.6,6.2,10,5.2,10,5.2s2.4,1.1,10-5.2C62.5,69.4,76.4,61.5,75.4,41.5z"
			/>
		<path fill="#3C2415" d="M52.3,58.1c0,0-5.2-1.6-6.5,5.8c0,0-1.5-0.2-3.8-2C42,61.8,45.5,53.2,52.3,58.1z"/>
		<path fill="#3C2415" d="M52.8,58.1c0,0,5.2-1.6,6.5,5.8c0,0,1.5-0.2,3.8-2C63.1,61.8,59.6,53.2,52.8,58.1z"/>
		<path fill="#3C2415" d="M29.6,41.5c0,0,3.3-20.3,13.8-18.3c0,0,9.4,5.9,17.3-0.1c0,0,9.5-0.3,14.8,18.5c0,0,1.3-20.1-13.1-27.2
			c0,0-13.3-6.1-24.7,3C37.6,17.3,26.8,25.8,29.6,41.5z"/>
		<polygon fill="#001E2F" points="52.3,104.6 36,81.9 22.9,85.3 39.6,97 35.3,98.9 43.1,104.6 		"/>
		<polygon fill="#001E2F" points="52.3,104.6 68.7,81.9 81.7,85.3 65,97.1 69.3,99 61.6,104.6 		"/>
		<polygon fill="#E2E3E4" points="32.5,80.7 42.3,76.1 52.3,80.3 62.3,76.1 72.7,80.7 57.9,90.6 52.3,82.5 46.2,90.6 		"/>
	</g>
</g>
</svg>
